<svg width="19" height="19" viewBox="0 0 19 19" fill="none" xmlns="http://www.w3.org/2000/svg">
<path fill-rule="evenodd" clip-rule="evenodd" d="M13.0142 0.5H5.01416C2.25274 0.5 0.0141602 2.73858 0.0141602 5.5V13.5C0.0141602 16.2614 2.25274 18.5 5.01416 18.5H13.0142C15.7756 18.5 18.0142 16.2614 18.0142 13.5V5.5C18.0142 2.73858 15.7756 0.5 13.0142 0.5ZM16.2642 13.5C16.2587 15.2926 14.8068 16.7445 13.0142 16.75H5.01416C3.22151 16.7445 1.76965 15.2926 1.76416 13.5V5.5C1.76965 3.70735 3.22151 2.25549 5.01416 2.25H13.0142C14.8068 2.25549 16.2587 3.70735 16.2642 5.5V13.5ZM13.7642 5.75C14.3165 5.75 14.7642 5.30228 14.7642 4.75C14.7642 4.19772 14.3165 3.75 13.7642 3.75C13.2119 3.75 12.7642 4.19772 12.7642 4.75C12.7642 5.30228 13.2119 5.75 13.7642 5.75ZM9.01416 5C6.52888 5 4.51416 7.01472 4.51416 9.5C4.51416 11.9853 6.52888 14 9.01416 14C11.4995 14 13.5142 11.9853 13.5142 9.5C13.5169 8.3057 13.0436 7.15957 12.1991 6.31508C11.3546 5.47059 10.2085 4.99734 9.01416 5ZM6.26416 9.5C6.26416 11.0188 7.49536 12.25 9.01416 12.25C10.533 12.25 11.7642 11.0188 11.7642 9.5C11.7642 7.9812 10.533 6.75 9.01416 6.75C7.49536 6.75 6.26416 7.9812 6.26416 9.5Z" fill="black"/>
</svg>
