<svg width="19" height="19" viewBox="0 0 19 19" fill="none" xmlns="http://www.w3.org/2000/svg">
<path fill-rule="evenodd" clip-rule="evenodd" d="M1.51416 0.5C0.68573 0.5 0.0141602 1.17157 0.0141602 2V17C0.0141602 17.8284 0.68573 18.5 1.51416 18.5H16.5142C17.3426 18.5 18.0142 17.8284 18.0142 17V2C18.0142 1.17157 17.3426 0.5 16.5142 0.5H1.51416ZM5.53492 4.50272C5.54055 5.45897 4.82477 6.04819 3.97539 6.04397C3.17523 6.03975 2.47773 5.40272 2.48195 4.50413C2.48617 3.65897 3.15414 2.97975 4.0218 2.99944C4.90211 3.01913 5.54055 3.6646 5.53492 4.50272ZM9.29386 7.26176H6.77387H6.77246V15.8216H9.43586V15.6219C9.43586 15.242 9.43556 14.862 9.43526 14.4819C9.43446 13.4681 9.43356 12.4532 9.43876 11.4397C9.44016 11.1936 9.45136 10.9377 9.51466 10.7028C9.75226 9.8253 10.5413 9.2586 11.4216 9.3979C11.9869 9.4864 12.3609 9.8141 12.5184 10.3471C12.6155 10.6803 12.6591 11.0389 12.6633 11.3863C12.6747 12.4339 12.6731 13.4815 12.6715 14.5292C12.6709 14.899 12.6703 15.269 12.6703 15.6388V15.8202H15.3422V15.6149C15.3422 15.1629 15.342 14.711 15.3417 14.2591C15.3412 13.1296 15.3406 12.0001 15.3436 10.8702C15.345 10.3597 15.2902 9.8563 15.165 9.3627C14.978 8.6286 14.5913 8.0211 13.9627 7.5824C13.5169 7.27019 13.0275 7.0691 12.4805 7.0466C12.4182 7.04401 12.3554 7.04062 12.2923 7.03721C12.0126 7.02209 11.7283 7.00673 11.4609 7.06066C10.6959 7.21394 10.0238 7.5641 9.51606 8.1814C9.45706 8.2522 9.39936 8.3241 9.31326 8.4314L9.29386 8.4557V7.26176ZM2.6958 15.8244H5.34658V7.26733H2.6958V15.8244Z" fill="black"/>
</svg>
