<svg width="72" height="17" viewBox="0 0 72 17" fill="none" xmlns="http://www.w3.org/2000/svg">
<path d="M0.23952 0.639648H10.0611V2.4858H6.19926V12.8639H4.07568V2.4858H0.230957V0.639648H0.23952ZM9.64153 4.01276H11.4569V5.72088H11.4911C11.551 5.47933 11.6624 5.24641 11.8251 5.02211C11.9878 4.79781 12.1847 4.58214 12.4159 4.40097C12.6471 4.21118 12.904 4.06452 13.1866 3.94375C13.4691 3.8316 13.7603 3.77121 14.0514 3.77121C14.274 3.77121 14.4367 3.77984 14.5224 3.78846C14.608 3.79709 14.6936 3.81434 14.7878 3.82297V5.70363C14.6508 5.67775 14.5138 5.6605 14.3682 5.64324C14.2227 5.62599 14.0857 5.61736 13.9486 5.61736C13.6233 5.61736 13.315 5.68638 13.0239 5.81578C12.7327 5.94518 12.4844 6.1436 12.2703 6.39378C12.0563 6.65259 11.885 6.96316 11.7566 7.34274C11.6281 7.72232 11.5682 8.15367 11.5682 8.6454V12.8553H9.63297V4.01276H9.64153ZM23.6846 12.8639H21.7837V11.6303H21.7494C21.5096 12.0789 21.1586 12.4326 20.6876 12.7C20.2167 12.9675 19.7371 13.1055 19.2491 13.1055C18.0931 13.1055 17.2539 12.8208 16.7401 12.2428C16.2264 11.6648 15.9695 10.7935 15.9695 9.62886V4.01276H17.9047V9.43907C17.9047 10.2155 18.0503 10.7676 18.35 11.0868C18.6411 11.406 19.0607 11.5699 19.5916 11.5699C20.0026 11.5699 20.3365 11.5095 20.6105 11.3801C20.8846 11.2507 21.1072 11.0868 21.2699 10.8711C21.4411 10.6641 21.561 10.4053 21.6381 10.112C21.7152 9.81866 21.7494 9.49946 21.7494 9.15439V4.02139H23.6846V12.8639ZM26.9813 10.0257C27.0412 10.5951 27.2553 10.9919 27.6235 11.2248C28.0003 11.4491 28.4456 11.5699 28.9679 11.5699C29.1477 11.5699 29.3532 11.5527 29.5844 11.5268C29.8156 11.5009 30.0382 11.4405 30.2352 11.3629C30.4407 11.2852 30.6034 11.1645 30.7404 11.0092C30.8688 10.8539 30.9288 10.6555 30.9202 10.4053C30.9117 10.1551 30.8175 9.94806 30.6462 9.79278C30.475 9.62886 30.2609 9.50809 29.9954 9.40456C29.73 9.30967 29.4303 9.2234 29.0878 9.15439C28.7453 9.08537 28.4027 9.00773 28.0517 8.93009C27.692 8.85244 27.3409 8.74892 27.007 8.63677C26.673 8.52462 26.3733 8.36934 26.1079 8.17092C25.8424 7.98113 25.6284 7.73095 25.4742 7.42901C25.3116 7.12707 25.2345 6.75611 25.2345 6.30751C25.2345 5.82441 25.3544 5.42757 25.5856 5.09975C25.8168 4.77193 26.1165 4.51312 26.4675 4.3147C26.8272 4.11628 27.2211 3.97825 27.6578 3.89198C28.0945 3.81434 28.5141 3.77121 28.9079 3.77121C29.3618 3.77121 29.7985 3.82297 30.2095 3.91787C30.6205 4.01276 30.9973 4.16805 31.3312 4.39234C31.6652 4.60802 31.9392 4.8927 32.1618 5.23778C32.3845 5.58285 32.5215 6.00557 32.5814 6.4973H30.5606C30.4664 6.03145 30.2609 5.71226 29.9269 5.55697C29.593 5.39306 29.2076 5.31542 28.7795 5.31542C28.6425 5.31542 28.4798 5.32405 28.2914 5.34993C28.103 5.37581 27.9318 5.41894 27.7605 5.47933C27.5978 5.53972 27.4608 5.63462 27.3409 5.75539C27.2296 5.87617 27.1697 6.03145 27.1697 6.22987C27.1697 6.47142 27.2553 6.66122 27.418 6.80787C27.5807 6.95453 27.7948 7.07531 28.0602 7.17883C28.3257 7.27372 28.6254 7.35999 28.9679 7.42901C29.3104 7.49802 29.6615 7.57566 30.0211 7.65331C30.3722 7.73095 30.7147 7.83447 31.0572 7.94662C31.3997 8.05877 31.6994 8.21405 31.9649 8.41247C32.2303 8.61089 32.4444 8.85244 32.6071 9.14576C32.7698 9.43907 32.8554 9.81003 32.8554 10.2414C32.8554 10.7676 32.7355 11.2076 32.4958 11.5785C32.256 11.9409 31.9478 12.2428 31.571 12.4671C31.1942 12.6914 30.7661 12.8639 30.3037 12.9675C29.8413 13.071 29.3789 13.1228 28.9251 13.1228C28.3685 13.1228 27.8547 13.0624 27.3838 12.933C26.9128 12.8036 26.5018 12.6138 26.1593 12.3636C25.8168 12.1048 25.5428 11.7856 25.3458 11.406C25.1489 11.0264 25.0461 10.5692 25.029 10.043H26.9813V10.0257ZM33.3692 4.01276H34.8334V1.35568H36.7686V4.01276H38.5155V5.47071H36.7686V10.1982C36.7686 10.4053 36.7772 10.5778 36.7943 10.7331C36.8115 10.8798 36.8543 11.0092 36.9142 11.1127C36.9742 11.2162 37.0683 11.2939 37.1968 11.3456C37.3252 11.3974 37.4879 11.4233 37.7106 11.4233C37.8476 11.4233 37.9846 11.4233 38.1216 11.4146C38.2586 11.406 38.3956 11.3887 38.5326 11.3542V12.8639C38.3185 12.8898 38.1045 12.9071 37.9075 12.933C37.702 12.9588 37.4965 12.9675 37.2824 12.9675C36.7686 12.9675 36.3576 12.9157 36.0494 12.8208C35.7411 12.7259 35.4928 12.5793 35.3215 12.3895C35.1417 12.1997 35.0304 11.9668 34.9619 11.6821C34.9019 11.3974 34.8591 11.0696 34.8506 10.7072V5.48796H33.3863V4.01276H33.3692ZM39.8855 4.01276H41.718V5.2119H41.7522C42.0262 4.69429 42.403 4.33196 42.8911 4.10766C43.3792 3.88336 43.9015 3.77121 44.4752 3.77121C45.1688 3.77121 45.7682 3.89198 46.282 4.14216C46.7958 4.38372 47.2239 4.72017 47.5664 5.15151C47.9089 5.58285 48.1572 6.08321 48.3285 6.65259C48.4998 7.22196 48.5854 7.83447 48.5854 8.48149C48.5854 9.07674 48.5083 9.65475 48.3542 10.2069C48.2001 10.7676 47.9689 11.2593 47.6606 11.6907C47.3523 12.122 46.9584 12.4585 46.4789 12.7173C45.9994 12.9761 45.4428 13.1055 44.792 13.1055C44.5095 13.1055 44.2269 13.0796 43.9443 13.0279C43.6617 12.9761 43.3877 12.8898 43.1308 12.7777C42.874 12.6655 42.6256 12.5189 42.4116 12.3377C42.1889 12.1565 42.0091 11.9495 41.855 11.7166H41.8207V16.1335H39.8855V4.01276ZM46.6502 8.44698C46.6502 8.05014 46.5988 7.66193 46.4961 7.28235C46.3933 6.90277 46.2392 6.57495 46.0337 6.28163C45.8281 5.98832 45.5713 5.75539 45.2716 5.58285C44.9633 5.41032 44.6122 5.31542 44.2183 5.31542C43.4049 5.31542 42.7883 5.60011 42.3773 6.16948C41.9663 6.73886 41.7608 7.49802 41.7608 8.44698C41.7608 8.89558 41.8122 9.30967 41.9235 9.68925C42.0348 10.0688 42.1889 10.3967 42.4116 10.6727C42.6256 10.9488 42.8825 11.1644 43.1822 11.3197C43.4819 11.4836 43.833 11.5613 44.2269 11.5613C44.6722 11.5613 45.0404 11.4664 45.3486 11.2852C45.6569 11.1041 45.9052 10.8625 46.1022 10.5778C46.2991 10.2845 46.4447 9.95669 46.5303 9.58573C46.6074 9.21477 46.6502 8.83519 46.6502 8.44698ZM50.0668 0.639648H52.002V2.4858H50.0668V0.639648ZM50.0668 4.01276H52.002V12.8639H50.0668V4.01276ZM53.7317 0.639648H55.6669V12.8639H53.7317V0.639648ZM61.6009 13.1055C60.8988 13.1055 60.2737 12.9847 59.7257 12.7518C59.1776 12.5189 58.7152 12.1911 58.3299 11.7856C57.9531 11.3715 57.662 10.8798 57.4651 10.3104C57.2681 9.74101 57.1654 9.11125 57.1654 8.42973C57.1654 7.75683 57.2681 7.13569 57.4651 6.56632C57.662 5.99695 57.9531 5.50521 58.3299 5.09112C58.7067 4.67703 59.1776 4.35784 59.7257 4.12491C60.2737 3.89198 60.8988 3.77121 61.6009 3.77121C62.3031 3.77121 62.9282 3.89198 63.4762 4.12491C64.0242 4.35784 64.4866 4.68566 64.8719 5.09112C65.2487 5.50521 65.5398 5.99695 65.7368 6.56632C65.9337 7.13569 66.0365 7.75683 66.0365 8.42973C66.0365 9.11125 65.9337 9.74101 65.7368 10.3104C65.5398 10.8798 65.2487 11.3715 64.8719 11.7856C64.4952 12.1997 64.0242 12.5189 63.4762 12.7518C62.9282 12.9847 62.3031 13.1055 61.6009 13.1055ZM61.6009 11.5613C62.0291 11.5613 62.4058 11.4664 62.7227 11.2852C63.0395 11.1041 63.2964 10.8625 63.5019 10.5692C63.7074 10.2759 63.853 9.93943 63.9557 9.56848C64.0499 9.19752 64.1013 8.81794 64.1013 8.42973C64.1013 8.05014 64.0499 7.67919 63.9557 7.29961C63.8615 6.92002 63.7074 6.5922 63.5019 6.29889C63.2964 6.00557 63.0395 5.77265 62.7227 5.59148C62.4058 5.41032 62.0291 5.31542 61.6009 5.31542C61.1728 5.31542 60.796 5.41032 60.4792 5.59148C60.1624 5.77265 59.9055 6.0142 59.7 6.29889C59.4945 6.5922 59.3489 6.92002 59.2461 7.29961C59.1519 7.67919 59.1006 8.05014 59.1006 8.42973C59.1006 8.81794 59.1519 9.19752 59.2461 9.56848C59.3403 9.93943 59.4945 10.2759 59.7 10.5692C59.9055 10.8625 60.1624 11.1041 60.4792 11.2852C60.796 11.475 61.1728 11.5613 61.6009 11.5613ZM66.6016 4.01276H68.0659V1.35568H70.0011V4.01276H71.7479V5.47071H70.0011V10.1982C70.0011 10.4053 70.0096 10.5778 70.0268 10.7331C70.0439 10.8798 70.0867 11.0092 70.1466 11.1127C70.2066 11.2162 70.3008 11.2939 70.4292 11.3456C70.5577 11.3974 70.7204 11.4233 70.943 11.4233C71.08 11.4233 71.217 11.4233 71.354 11.4146C71.491 11.406 71.628 11.3887 71.765 11.3542V12.8639C71.551 12.8898 71.3369 12.9071 71.1399 12.933C70.9344 12.9588 70.7289 12.9675 70.5149 12.9675C70.0011 12.9675 69.5901 12.9157 69.2818 12.8208C68.9735 12.7259 68.7252 12.5793 68.554 12.3895C68.3741 12.1997 68.2628 11.9668 68.1943 11.6821C68.1344 11.3974 68.0916 11.0696 68.083 10.7072V5.48796H66.6188V4.01276H66.6016Z" fill="white"/>
</svg>
