<svg width="21" height="15" viewBox="0 0 21 15" fill="none" xmlns="http://www.w3.org/2000/svg">
<path d="M19.607 2.46082C19.4931 2.03822 19.2705 1.65282 18.9614 1.34299C18.6522 1.03315 18.2673 0.80968 17.845 0.69482C16.279 0.26482 10.014 0.25782 10.014 0.25782C10.014 0.25782 3.75 0.25082 2.183 0.66182C1.76093 0.781966 1.37682 1.0086 1.06757 1.31995C0.758311 1.63131 0.534287 2.01694 0.417002 2.43982C0.00400165 4.00582 1.46514e-06 7.25382 1.46514e-06 7.25382C1.46514e-06 7.25382 -0.00399852 10.5178 0.406001 12.0678C0.636001 12.9248 1.311 13.6018 2.169 13.8328C3.751 14.2628 9.999 14.2698 9.999 14.2698C9.999 14.2698 16.264 14.2768 17.83 13.8668C18.2525 13.7522 18.6377 13.5292 18.9477 13.22C19.2576 12.9108 19.4814 12.5261 19.597 12.1038C20.011 10.5388 20.014 7.29182 20.014 7.29182C20.014 7.29182 20.034 4.02682 19.607 2.46082ZM8.01 10.2628L8.015 4.26282L13.222 7.26782L8.01 10.2628Z" fill="black"/>
</svg>
