<svg width="72" height="16" viewBox="0 0 72 16" fill="none" xmlns="http://www.w3.org/2000/svg">
<path d="M0.23952 0.253052H10.0611V2.09921H6.19926V12.4774H4.07568V2.09921H0.230957V0.253052H0.23952ZM9.64153 3.62616H11.4569V5.33429H11.4911C11.551 5.09274 11.6624 4.85981 11.8251 4.63551C11.9878 4.41121 12.1847 4.19554 12.4159 4.01437C12.6471 3.82458 12.904 3.67793 13.1866 3.55715C13.4691 3.445 13.7603 3.38461 14.0514 3.38461C14.274 3.38461 14.4367 3.39324 14.5224 3.40187C14.608 3.41049 14.6936 3.42775 14.7878 3.43637V5.31703C14.6508 5.29115 14.5138 5.2739 14.3682 5.25665C14.2227 5.23939 14.0857 5.23077 13.9486 5.23077C13.6233 5.23077 13.315 5.29978 13.0239 5.42918C12.7327 5.55859 12.4844 5.75701 12.2703 6.00719C12.0563 6.26599 11.885 6.57656 11.7566 6.95614C11.6281 7.33573 11.5682 7.76707 11.5682 8.2588V12.4687H9.63297V3.62616H9.64153ZM23.6846 12.4774H21.7837V11.2437H21.7494C21.5096 11.6923 21.1586 12.046 20.6876 12.3134C20.2167 12.5809 19.7371 12.7189 19.2491 12.7189C18.0931 12.7189 17.2539 12.4342 16.7401 11.8562C16.2264 11.2782 15.9695 10.4069 15.9695 9.24227V3.62616H17.9047V9.05248C17.9047 9.8289 18.0503 10.381 18.35 10.7002C18.6411 11.0194 19.0607 11.1833 19.5916 11.1833C20.0026 11.1833 20.3365 11.1229 20.6105 10.9935C20.8846 10.8641 21.1072 10.7002 21.2699 10.4845C21.4411 10.2775 21.561 10.0187 21.6381 9.72537C21.7152 9.43206 21.7494 9.11286 21.7494 8.76779V3.63479H23.6846V12.4774ZM26.9813 9.6391C27.0412 10.2085 27.2553 10.6053 27.6235 10.8382C28.0003 11.0625 28.4456 11.1833 28.9679 11.1833C29.1477 11.1833 29.3532 11.1661 29.5844 11.1402C29.8156 11.1143 30.0382 11.0539 30.2352 10.9763C30.4407 10.8986 30.6034 10.7779 30.7404 10.6226C30.8688 10.4673 30.9288 10.2689 30.9202 10.0187C30.9117 9.76851 30.8175 9.56146 30.6462 9.40618C30.475 9.24227 30.2609 9.12149 29.9954 9.01797C29.73 8.92307 29.4303 8.8368 29.0878 8.76779C28.7453 8.69877 28.4027 8.62113 28.0517 8.54349C27.692 8.46585 27.3409 8.36233 27.007 8.25018C26.673 8.13803 26.3733 7.98274 26.1079 7.78432C25.8424 7.59453 25.6284 7.34435 25.4742 7.04241C25.3116 6.74047 25.2345 6.36951 25.2345 5.92092C25.2345 5.43781 25.3544 5.04097 25.5856 4.71315C25.8168 4.38533 26.1165 4.12652 26.4675 3.92811C26.8272 3.72969 27.2211 3.59166 27.6578 3.50539C28.0945 3.42775 28.5141 3.38461 28.9079 3.38461C29.3618 3.38461 29.7985 3.43637 30.2095 3.53127C30.6205 3.62616 30.9973 3.78145 31.3312 4.00575C31.6652 4.22142 31.9392 4.50611 32.1618 4.85118C32.3845 5.19626 32.5215 5.61898 32.5814 6.11071H30.5606C30.4664 5.64486 30.2609 5.32566 29.9269 5.17038C29.593 5.00647 29.2076 4.92882 28.7795 4.92882C28.6425 4.92882 28.4798 4.93745 28.2914 4.96333C28.103 4.98921 27.9318 5.03235 27.7605 5.09273C27.5978 5.15312 27.4608 5.24802 27.3409 5.36879C27.2296 5.48957 27.1697 5.64486 27.1697 5.84327C27.1697 6.08483 27.2553 6.27462 27.418 6.42128C27.5807 6.56793 27.7948 6.68871 28.0602 6.79223C28.3257 6.88713 28.6254 6.9734 28.9679 7.04241C29.3104 7.11143 29.6615 7.18907 30.0211 7.26671C30.3722 7.34435 30.7147 7.44788 31.0572 7.56003C31.3997 7.67217 31.6994 7.82746 31.9649 8.02588C32.2303 8.22429 32.4444 8.46585 32.6071 8.75916C32.7698 9.05248 32.8554 9.42343 32.8554 9.85478C32.8554 10.381 32.7355 10.821 32.4958 11.1919C32.256 11.5543 31.9478 11.8562 31.571 12.0805C31.1942 12.3048 30.7661 12.4773 30.3037 12.5809C29.8413 12.6844 29.3789 12.7362 28.9251 12.7362C28.3685 12.7362 27.8547 12.6758 27.3838 12.5464C26.9128 12.417 26.5018 12.2272 26.1593 11.977C25.8168 11.7182 25.5428 11.399 25.3458 11.0194C25.1489 10.6398 25.0461 10.1826 25.029 9.65636H26.9813V9.6391ZM33.3692 3.62616H34.8334V0.969084H36.7686V3.62616H38.5155V5.08411H36.7686V9.81164C36.7686 10.0187 36.7772 10.1912 36.7943 10.3465C36.8115 10.4932 36.8543 10.6226 36.9142 10.7261C36.9742 10.8296 37.0683 10.9073 37.1968 10.959C37.3252 11.0108 37.4879 11.0367 37.7106 11.0367C37.8476 11.0367 37.9846 11.0367 38.1216 11.028C38.2586 11.0194 38.3956 11.0022 38.5326 10.9676V12.4774C38.3185 12.5032 38.1045 12.5205 37.9075 12.5464C37.702 12.5722 37.4965 12.5809 37.2824 12.5809C36.7686 12.5809 36.3576 12.5291 36.0494 12.4342C35.7411 12.3393 35.4928 12.1927 35.3215 12.0029C35.1417 11.8131 35.0304 11.5802 34.9619 11.2955C34.9019 11.0108 34.8591 10.683 34.8506 10.3206V5.10136H33.3863V3.62616H33.3692ZM39.8855 3.62616H41.718V4.8253H41.7522C42.0262 4.30769 42.403 3.94536 42.8911 3.72106C43.3792 3.49676 43.9015 3.38461 44.4752 3.38461C45.1688 3.38461 45.7682 3.50539 46.282 3.75557C46.7958 3.99712 47.2239 4.33357 47.5664 4.76491C47.9089 5.19626 48.1572 5.69662 48.3285 6.26599C48.4998 6.83537 48.5854 7.44788 48.5854 8.09489C48.5854 8.69015 48.5083 9.26815 48.3542 9.82027C48.2001 10.381 47.9689 10.8727 47.6606 11.3041C47.3523 11.7354 46.9584 12.0719 46.4789 12.3307C45.9994 12.5895 45.4428 12.7189 44.792 12.7189C44.5095 12.7189 44.2269 12.693 43.9443 12.6413C43.6617 12.5895 43.3877 12.5032 43.1308 12.3911C42.874 12.2789 42.6256 12.1323 42.4116 11.9511C42.1889 11.7699 42.0091 11.5629 41.855 11.33H41.8207V15.7469H39.8855V3.62616ZM46.6502 8.06038C46.6502 7.66355 46.5988 7.27534 46.4961 6.89575C46.3933 6.51617 46.2392 6.18835 46.0337 5.89504C45.8281 5.60172 45.5713 5.36879 45.2716 5.19626C44.9633 5.02372 44.6122 4.92882 44.2183 4.92882C43.4049 4.92882 42.7883 5.21351 42.3773 5.78289C41.9663 6.35226 41.7608 7.11143 41.7608 8.06038C41.7608 8.50898 41.8122 8.92307 41.9235 9.30266C42.0348 9.68224 42.1889 10.0101 42.4116 10.2861C42.6256 10.5622 42.8825 10.7779 43.1822 10.9331C43.4819 11.097 43.833 11.1747 44.2269 11.1747C44.6722 11.1747 45.0404 11.0798 45.3486 10.8986C45.6569 10.7175 45.9052 10.4759 46.1022 10.1912C46.2991 9.89791 46.4447 9.57009 46.5303 9.19913C46.6074 8.82818 46.6502 8.44859 46.6502 8.06038ZM50.0668 0.253052H52.002V2.09921H50.0668V0.253052ZM50.0668 3.62616H52.002V12.4774H50.0668V3.62616ZM53.7317 0.253052H55.6669V12.4774H53.7317V0.253052ZM61.6009 12.7189C60.8988 12.7189 60.2737 12.5981 59.7257 12.3652C59.1776 12.1323 58.7152 11.8045 58.3299 11.399C57.9531 10.9849 57.662 10.4932 57.4651 9.92379C57.2681 9.35442 57.1654 8.72465 57.1654 8.04313C57.1654 7.37023 57.2681 6.7491 57.4651 6.17972C57.662 5.61035 57.9531 5.11862 58.3299 4.70452C58.7067 4.29043 59.1776 3.97124 59.7257 3.73831C60.2737 3.50539 60.8988 3.38461 61.6009 3.38461C62.3031 3.38461 62.9282 3.50539 63.4762 3.73831C64.0242 3.97124 64.4866 4.29906 64.8719 4.70452C65.2487 5.11862 65.5398 5.61035 65.7368 6.17972C65.9337 6.7491 66.0365 7.37023 66.0365 8.04313C66.0365 8.72465 65.9337 9.35442 65.7368 9.92379C65.5398 10.4932 65.2487 10.9849 64.8719 11.399C64.4952 11.8131 64.0242 12.1323 63.4762 12.3652C62.9282 12.5981 62.3031 12.7189 61.6009 12.7189ZM61.6009 11.1747C62.0291 11.1747 62.4058 11.0798 62.7227 10.8986C63.0395 10.7175 63.2964 10.4759 63.5019 10.1826C63.7074 9.88928 63.853 9.55284 63.9557 9.18188C64.0499 8.81092 64.1013 8.43134 64.1013 8.04313C64.1013 7.66355 64.0499 7.29259 63.9557 6.91301C63.8615 6.53343 63.7074 6.2056 63.5019 5.91229C63.2964 5.61898 63.0395 5.38605 62.7227 5.20488C62.4058 5.02372 62.0291 4.92882 61.6009 4.92882C61.1728 4.92882 60.796 5.02372 60.4792 5.20488C60.1624 5.38605 59.9055 5.6276 59.7 5.91229C59.4945 6.2056 59.3489 6.53343 59.2461 6.91301C59.1519 7.29259 59.1006 7.66355 59.1006 8.04313C59.1006 8.43134 59.1519 8.81092 59.2461 9.18188C59.3403 9.55284 59.4945 9.88928 59.7 10.1826C59.9055 10.4759 60.1624 10.7175 60.4792 10.8986C60.796 11.0884 61.1728 11.1747 61.6009 11.1747ZM66.6016 3.62616H68.0659V0.969084H70.0011V3.62616H71.7479V5.08411H70.0011V9.81164C70.0011 10.0187 70.0096 10.1912 70.0268 10.3465C70.0439 10.4932 70.0867 10.6226 70.1466 10.7261C70.2066 10.8296 70.3008 10.9073 70.4292 10.959C70.5577 11.0108 70.7204 11.0367 70.943 11.0367C71.08 11.0367 71.217 11.0367 71.354 11.028C71.491 11.0194 71.628 11.0022 71.765 10.9676V12.4774C71.551 12.5032 71.3369 12.5205 71.1399 12.5464C70.9344 12.5722 70.7289 12.5809 70.5149 12.5809C70.0011 12.5809 69.5901 12.5291 69.2818 12.4342C68.9735 12.3393 68.7252 12.1927 68.554 12.0029C68.3741 11.8131 68.2628 11.5802 68.1943 11.2955C68.1344 11.0108 68.0916 10.683 68.083 10.3206V5.10136H66.6188V3.62616H66.6016Z" fill="black"/>
</svg>
