<!-- <svg fill="#ffffff" height="200px" width="200px" version="1.1" id="Capa_1" xmlns="http://www.w3.org/2000/svg" xmlns:xlink="http://www.w3.org/1999/xlink" viewBox="0 0 490.718 490.718" xml:space="preserve" stroke="#ffffff"><g id="SVGRepo_bgCarrier" stroke-width="0"></g><g id="SVGRepo_tracerCarrier" stroke-linecap="round" stroke-linejoin="round"></g><g id="SVGRepo_iconCarrier"> <g> <path d="M245.359,0.359C109.852,0.359,0,110.049,0,245.358s109.852,245,245.359,245s245.359-109.691,245.359-245 S380.866,0.359,245.359,0.359z M176.828,341.011V140.824l187.489,100.098L176.828,341.011z"></path> <g> </g> <g> </g> <g> </g> <g> </g> <g> </g> <g> </g> <g> </g> <g> </g> <g> </g> <g> </g> <g> </g> <g> </g> <g> </g> <g> </g> <g> </g> </g> </g></svg> -->
<svg width="48" height="48" viewBox="0 0 48 48" fill="none" xmlns="http://www.w3.org/2000/svg">
<path fill-rule="evenodd" clip-rule="evenodd" d="M24 48C30.3652 48 36.4697 45.4714 40.9706 40.9706C45.4714 36.4697 48 30.3652 48 24C48 17.6348 45.4714 11.5303 40.9706 7.02944C36.4697 2.52856 30.3652 0 24 0C17.6348 0 11.5303 2.52856 7.02944 7.02944C2.52856 11.5303 0 17.6348 0 24C0 30.3652 2.52856 36.4697 7.02944 40.9706C11.5303 45.4714 17.6348 48 24 48ZM22.665 15.504C22.2132 15.2026 21.688 15.0294 21.1455 15.0031C20.6031 14.9767 20.0636 15.0981 19.5847 15.3544C19.1058 15.6106 18.7055 15.992 18.4264 16.458C18.1473 16.9239 17.9999 17.4569 18 18V30C17.9999 30.5431 18.1473 31.0761 18.4264 31.542C18.7055 32.008 19.1058 32.3894 19.5847 32.6456C20.0636 32.9019 20.6031 33.0233 21.1455 32.9969C21.688 32.9706 22.2132 32.7974 22.665 32.496L31.665 26.496C32.0759 26.222 32.4128 25.8509 32.6458 25.4155C32.8788 24.98 33.0007 24.4938 33.0007 24C33.0007 23.5062 32.8788 23.02 32.6458 22.5845C32.4128 22.1491 32.0759 21.778 31.665 21.504L22.665 15.504Z" fill="white"/>
</svg>
