<!-- <svg height="800px" width="800px" version="1.1" id="Capa_1" xmlns="http://www.w3.org/2000/svg" xmlns:xlink="http://www.w3.org/1999/xlink" 
	 viewBox="0 0 32 32" xml:space="preserve">
<g>
	<g id="right_x5F_quote">
		<g>
			<path style="fill:#030104;" d="M0,4v12h8c0,4.41-3.586,8-8,8v4c6.617,0,12-5.383,12-12V4H0z"/>
			<path style="fill:#030104;" d="M20,4v12h8c0,4.41-3.586,8-8,8v4c6.617,0,12-5.383,12-12V4H20z"/>
		</g>
	</g>
</g>
</svg> -->

<svg width="84" height="68" viewBox="0 0 84 68" fill="none" xmlns="http://www.w3.org/2000/svg">
<path d="M76.6209 57.7832C84.4834 49.2498 83.6917 38.2915 83.6667 38.1665V4.83317C83.6667 3.7281 83.2277 2.66829 82.4463 1.88689C81.6649 1.10549 80.6051 0.666504 79.5 0.666504H54.5C49.9042 0.666504 46.1667 4.404 46.1667 8.99984V38.1665C46.1667 39.2716 46.6057 40.3314 47.3871 41.1128C48.1685 41.8942 49.2283 42.3332 50.3334 42.3332H63.1584C63.0685 44.3928 62.4531 46.3952 61.3709 48.1498C59.2542 51.4873 55.2667 53.7665 49.5125 54.9165L46.1667 55.5832V67.3332H50.3334C61.9292 67.3332 70.775 64.1207 76.6209 57.7832ZM30.7584 57.7832C38.625 49.2498 37.8292 38.2915 37.8042 38.1665V4.83317C37.8042 3.7281 37.3652 2.66829 36.5838 1.88689C35.8024 1.10549 34.7426 0.666504 33.6375 0.666504H8.63753C4.0417 0.666504 0.304199 4.404 0.304199 8.99984V38.1665C0.304199 39.2716 0.743186 40.3314 1.52459 41.1128C2.30599 41.8942 3.3658 42.3332 4.47087 42.3332H17.2959C17.206 44.3928 16.5906 46.3952 15.5084 48.1498C13.3917 51.4873 9.4042 53.7665 3.65003 54.9165L0.304199 55.5832V67.3332H4.47087C16.0667 67.3332 24.9125 64.1207 30.7584 57.7832Z" fill="black"/>
</svg>
